<svg width="656" height="107" viewBox="0 0 656 107" fill="none" xmlns="http://www.w3.org/2000/svg">
<g clip-path="url(#clip0_228_234)">
<path d="M181.119 76.4925H169.15L154.464 55.2025V76.4925H143.939V30.5076H154.464V50.4905L168.531 30.5076H180.5L165.092 52.8981L181.119 76.4925Z" fill="#4775BA"/>
<path d="M195.565 66.3806H213.931V76.4925H185.04V30.5076H213.622V40.6194H195.565V48.1517H211.971V58.126H195.565V66.3806Z" fill="#4775BA"/>
<path d="M265.797 30.5076V76.4925H255.479V49.7683L243.579 69.2697H242.409L230.44 49.7683V76.4925H220.122V30.5076H230.44L242.925 50.9377L255.41 30.5076H265.797Z" fill="#4775BA"/>
<path d="M310.819 76.4925H298.884L284.164 55.2025V76.4925H273.674V30.5076H284.164V50.4905L298.231 30.5076H310.166L294.688 52.8981L310.819 76.4925Z" fill="#4775BA"/>
<path d="M345.282 76.4925L343.012 69.2697H325.815L323.545 76.4925H312.161L327.776 30.5076H341.155L356.77 76.4925H345.282ZM329.083 59.2954H339.848L334.448 42.4423L329.083 59.2954Z" fill="#4775BA"/>
<path d="M372.66 66.3806H390.579V76.4925H359.074V68.3411L376.684 40.6194H359.487V30.5076H390.442V38.659L372.66 66.3806Z" fill="#4775BA"/>
<path d="M457.957 52.7262V55.856C458.05 58.7296 457.541 61.5907 456.463 64.256C455.385 66.9213 453.762 69.3319 451.698 71.3333C449.519 73.3605 446.958 74.9336 444.165 75.9611C441.372 76.9886 438.402 77.4498 435.429 77.3179C432.186 77.4262 428.955 76.8721 425.933 75.6894C422.911 74.5067 420.162 72.7202 417.854 70.4391C415.613 68.2375 413.846 65.6003 412.663 62.69C411.48 59.7797 410.906 56.658 410.975 53.5172C410.906 50.3764 411.48 47.2547 412.663 44.3444C413.846 41.4341 415.613 38.7969 417.854 36.5953C421.637 32.9613 426.475 30.6207 431.673 29.9099C436.87 29.1992 442.159 30.1551 446.779 32.64C450.206 34.4948 453.07 37.2395 455.068 40.585L448.568 44.2996C447.274 42.0675 445.379 40.244 443.099 39.0373C440.637 37.6764 437.864 36.9772 435.051 37.0081C432.83 36.9196 430.615 37.2962 428.548 38.1135C426.481 38.9309 424.607 40.171 423.047 41.7544C421.52 43.3076 420.322 45.1529 419.524 47.1799C418.726 49.2069 418.345 51.374 418.404 53.5516C418.323 55.7319 418.693 57.9054 419.492 59.9356C420.292 61.9658 421.502 63.8088 423.047 65.3488C424.677 66.9201 426.609 68.1447 428.725 68.9487C430.841 69.7527 433.099 70.1193 435.361 70.0264C438.896 70.1788 442.385 69.1768 445.3 67.1717C447.832 65.3175 449.575 62.5802 450.184 59.5018H434.845V52.623L457.957 52.7262Z" fill="#4775BA"/>
<path d="M472.403 69.2697H491.113V76.4925H464.836V30.5076H472.403V69.2697Z" fill="#4775BA"/>
<path d="M532.145 70.4047C528.812 73.7517 524.559 76.0326 519.926 76.9579C515.294 77.8831 510.491 77.411 506.127 75.6015C501.764 73.7919 498.036 70.7265 495.418 66.7945C492.8 62.8625 491.409 58.2411 491.423 53.5172C491.423 47.1958 493.934 41.1332 498.404 36.6633C502.874 32.1933 508.936 29.6821 515.258 29.6821C521.579 29.6821 527.642 32.1933 532.112 36.6633C536.582 41.1332 539.093 47.1958 539.093 53.5172C539.155 56.6581 538.57 59.778 537.375 62.6832C536.18 65.5884 534.4 68.2167 532.145 70.4047ZM503.667 65.3488C506.769 68.3699 510.928 70.0606 515.258 70.0606C519.588 70.0606 523.747 68.3699 526.849 65.3488C528.389 63.8108 529.599 61.9739 530.404 59.951C531.208 57.9281 531.59 55.7621 531.526 53.586C531.595 51.4043 531.215 49.2316 530.411 47.2025C529.606 45.1733 528.394 43.3308 526.849 41.7888C523.747 38.7677 519.588 37.0771 515.258 37.0771C510.928 37.0771 506.769 38.7677 503.667 41.7888C502.122 43.3308 500.91 45.1733 500.105 47.2025C499.301 49.2316 498.921 51.4043 498.99 53.586C498.926 55.7621 499.308 57.9281 500.112 59.951C500.917 61.9739 502.126 63.8108 503.667 65.3488Z" fill="#4775BA"/>
<path d="M573.04 52.6572C575.008 53.6248 576.665 55.1265 577.821 56.9909C578.985 58.9061 579.581 61.1127 579.54 63.3538C579.578 65.1154 579.239 66.8647 578.545 68.4843C577.851 70.1038 576.818 71.556 575.516 72.7434C572.881 75.2306 569.371 76.5778 565.748 76.4923H546.041V30.5074H564.304C567.841 30.4481 571.266 31.7537 573.865 34.1532C575.135 35.3034 576.145 36.7115 576.827 38.2833C577.509 39.8551 577.848 41.5544 577.821 43.2676C577.873 45.1077 577.462 46.9313 576.627 48.5717C575.792 50.2121 574.558 51.6168 573.04 52.6572ZM564.235 37.627H553.538V49.6993H564.235C565.018 49.7142 565.795 49.5659 566.518 49.2639C567.24 48.9619 567.892 48.5128 568.431 47.9452C568.995 47.3835 569.439 46.7124 569.735 45.9731C570.03 45.2338 570.172 44.4419 570.151 43.646C570.164 42.8511 570.019 42.0614 569.724 41.3233C569.428 40.5851 568.989 39.9132 568.431 39.3467C567.89 38.7836 567.237 38.3398 566.515 38.0437C565.792 37.7475 565.016 37.6056 564.235 37.627ZM565.68 69.3727C566.508 69.389 567.33 69.2322 568.094 68.9124C568.858 68.5926 569.547 68.1168 570.116 67.5155C571.265 66.2756 571.903 64.6481 571.903 62.9583C571.903 61.2684 571.265 59.6408 570.116 58.401C569.554 57.7883 568.867 57.3026 568.102 56.9764C567.337 56.6502 566.511 56.491 565.68 56.5094H553.538V69.3727H565.68Z" fill="#4775BA"/>
<path d="M615.964 76.4925L612.731 67.2061H593.195L589.962 76.4925H581.742L598.457 30.5076H607.537L624.149 76.4925H615.964ZM595.671 60.1209H610.254L602.963 39.4844L595.671 60.1209Z" fill="#4775BA"/>
<path d="M636.566 69.2697H655.276V76.4925H629.033V30.5076H636.566V69.2697Z" fill="#4775BA"/>
<path d="M95.4092 34.8068C55.0305 35.4259 19.5358 49.9746 0 59.8113C1.41681 71.4678 6.61124 82.3399 14.7895 90.7659C37.4789 66.7096 64.937 47.6506 95.4092 34.8068Z" fill="#20386C"/>
<path d="M105.487 42.4766C75.4235 55.9796 48.4258 75.4644 26.1394 99.7427C28.9878 101.398 31.981 102.791 35.0819 103.904C40.7956 105.971 46.8219 107.042 52.898 107.069C62.9067 101.634 73.5345 94.4804 77.5586 86.8793C75.0566 93.1636 71.9463 99.1883 68.2722 104.867C81.1909 101.063 92.199 92.5259 99.0978 80.9599C105.997 69.394 108.278 55.6512 105.487 42.4766Z" fill="#4775BA"/>
<path d="M71.2301 3.16406C62.6151 0.0536382 53.3449 -0.789158 44.3101 0.716635C35.2754 2.22243 26.7796 6.02621 19.639 11.7626C26.17 9.65793 32.9689 8.4997 39.8284 8.32317C27.3694 12.827 15.8662 19.6286 5.91578 28.3749C4.72378 30.6516 3.68952 33.0074 2.82031 35.4257C1.40673 39.3125 0.459993 43.3535 0 47.4636C30.7022 31.7803 65.0604 24.652 99.4677 26.8272C93.1617 15.8383 83.1526 7.45072 71.2301 3.16406Z" fill="#4775BA"/>
</g>
<defs>
<clipPath id="clip0_228_234">
<rect width="655.276" height="107" fill="white"/>
</clipPath>
</defs>
</svg>

